<svg width="20" height="20" viewBox="0 0 20 20" fill="none" xmlns="http://www.w3.org/2000/svg">
<path d="M18 10C18 14.4183 14.4183 18 10 18C5.58172 18 2 14.4183 2 10C2 5.58172 5.58172 2 10 2C14.4183 2 18 5.58172 18 10Z" fill="#EF4444"/>
<path d="M10 12.6667C10.3682 12.6667 10.6667 12.9651 10.6667 13.3333C10.6667 13.7015 10.3682 14 10 14C9.63181 14 9.33333 13.7015 9.33333 13.3333C9.33333 12.9651 9.63181 12.6667 10 12.6667ZM10 6C10.3682 6 10.6667 6.29848 10.6667 6.66667V10.6667C10.6667 11.0349 10.3682 11.3333 10 11.3333C9.63181 11.3333 9.33333 11.0349 9.33333 10.6667V6.66667C9.33333 6.29848 9.63181 6 10 6Z" fill="white"/>
</svg>
