<svg width="20" height="20" viewBox="0 0 20 20" fill="none" xmlns="http://www.w3.org/2000/svg">
<path d="M9.99937 6.01352C11.2199 6.01352 12.0433 6.54074 12.5127 6.98129L14.3471 5.19018C13.2205 4.14296 11.7544 3.50018 9.99937 3.50018C7.45715 3.50018 5.26159 4.95907 4.1927 7.08241L6.29437 8.71463C6.82159 7.14741 8.28048 6.01352 9.99937 6.01352Z" fill="#EA4335"/>
<path d="M16.2396 10.1446C16.2396 9.61018 16.1963 9.22018 16.1024 8.81573H9.99959V11.228H13.5818C13.5096 11.8274 13.1196 12.7302 12.2529 13.3368L14.304 14.9257C15.5318 13.7918 16.2396 12.1235 16.2396 10.1446Z" fill="#4285F4"/>
<path d="M6.30157 11.2857C6.16434 10.8813 6.0849 10.448 6.0849 10.0002C6.0849 9.5524 6.16434 9.11906 6.29434 8.71462L4.19268 7.0824C3.75212 7.96351 3.49934 8.95295 3.49934 10.0002C3.49934 11.0474 3.75212 12.0368 4.19268 12.918L6.30157 11.2857Z" fill="#FBBC05"/>
<path d="M9.99947 16.5002C11.7545 16.5002 13.2278 15.9224 14.3039 14.9258L12.2528 13.3369C11.7039 13.7197 10.9672 13.9869 9.99947 13.9869C8.28058 13.9869 6.82169 12.853 6.30169 11.2858L4.20003 12.918C5.26892 15.0413 7.45725 16.5002 9.99947 16.5002Z" fill="#34A853"/>
</svg>
