<svg width="20" height="20" viewBox="0 0 20 20" fill="none" xmlns="http://www.w3.org/2000/svg">
<path fill-rule="evenodd" clip-rule="evenodd" d="M9.99878 2.62537C5.66165 2.62537 2.14166 5.35965 2.14166 8.72251C2.14166 10.8204 3.50094 12.6511 5.57522 13.7668L4.70308 16.9647C4.68663 17.0283 4.69001 17.0954 4.71279 17.157C4.73556 17.2186 4.77664 17.2718 4.8305 17.3094C4.88437 17.3471 4.94845 17.3673 5.01415 17.3675C5.07985 17.3676 5.14403 17.3477 5.19808 17.3104L9.01664 14.7725C9.33878 14.7725 9.66878 14.8275 9.99878 14.8275C14.3359 14.8275 17.8559 12.0932 17.8559 8.72251C17.8559 5.3518 14.3359 2.62537 9.99878 2.62537Z" fill="black"/>
</svg>
