<svg width="20" height="20" viewBox="0 0 20 20" fill="none" xmlns="http://www.w3.org/2000/svg">
<path d="M18 10C18 14.4183 14.4183 18 10 18C5.58172 18 2 14.4183 2 10C2 5.58172 5.58172 2 10 2C14.4183 2 18 5.58172 18 10Z" fill="#2563EB"/>
<path d="M12.8574 7.53255C13.1154 7.26989 13.5381 7.2661 13.8008 7.52409C14.0634 7.78208 14.0672 8.20477 13.8092 8.46745L9.22591 13.1341C9.10056 13.2617 8.92888 13.3333 8.75 13.3333C8.57111 13.3333 8.39944 13.2617 8.27409 13.1341L6.19075 11.0124C5.93304 10.7497 5.93669 10.3276 6.19922 10.0697C6.4619 9.81167 6.88458 9.81544 7.14258 10.0781L8.74935 11.7142L12.8574 7.53255Z" fill="white"/>
</svg>
